<svg xmlns="http://www.w3.org/2000/svg" width="48" height="19" fill="none"><path fill="#000" d="M-.00000344 18.615V.000005H2.346V18.615zM12.1707 18.921c-1.173 0-2.22703-.238-3.16203-.714q-1.377-.7395-2.1675-2.04-.765-1.3005-.765-3.0345V5.61h2.3715v7.497q0 1.173.51 2.04c.34.561.7905.9945 1.35153 1.3005q.867.459 1.836.459.9945 0 1.836-.459.867-.459 1.377-1.3005.5355-.867.5355-2.04V5.61h2.3715v7.5225q0 1.734-.7905 3.0345t-2.1675 2.04q-1.377.714-3.1365.714m11.7306-.306q-.816 0-1.4535-.3825t-1.02-1.02q-.357-.663-.357-1.428 0-.816.3825-1.428.408-.6375 1.173-1.1475l5.9925-3.7995c.255-.15299.4165-.30599.4845-.45899.085-.153.1275-.3145.1275-.48451 0-.204-.085-.391-.255-.56099-.17-.18701-.391-.28051-.663-.28051h-6.6045V5.61h7.3185q.7905 0 1.4025.3825.6375.3825.9945 1.0455c.255.425.3825.8925.3825 1.40251q0 .790485-.408 1.4535c-.255.42499-.629.79899-1.122 1.12199l-5.9925 3.7995q-.3825.2295-.51.459-.102.2295-.102.4845 0 .306.255.5865.255.255.6885.255h6.9615v2.0145zm17.2314.306q-1.989 0-3.519-.8925-1.53-.918-2.4225-2.448-.8925-1.5555-.8925-3.468c0-1.275.2975-2.42249.8925-3.44249.595-1.03701 1.4025-1.85301 2.4225-2.44801 1.02-.612 2.193-.91799 3.519-.91799s2.499.30599 3.519.91799q1.5555.8925 2.4225 2.4225.8925 1.53.8925 3.468 0 1.9125-.8925 3.468-.867 1.53-2.4225 2.448-1.53.8925-3.519.8925m0-2.0145q1.3515 0 2.346-.6375t1.5555-1.7085q.561-1.0965.561-2.448t-.561-2.4225c-.374-.73099-.8925-1.30899-1.5555-1.73399q-.9945-.6375-2.346-.6375-1.326 0-2.346.6375c-.663.425-1.1815 1.003-1.5555 1.73399q-.561 1.071-.561 2.4225t.561 2.448q.561 1.071 1.5555 1.7085 1.02.6375 2.346.6375"></path><style>@media (prefers-color-scheme: light) { :root { filter: none; } }
@media (prefers-color-scheme: dark) { :root { filter: invert(100%); } }
</style></svg>