<svg width="177" height="187" viewBox="0 0 177 187" fill="none" xmlns="http://www.w3.org/2000/svg">
  <style>
    path { fill: black; }
    @media (prefers-color-scheme: dark) {
      path { fill: white; }
    }
  </style>
  <path d="M58 30V10c0-5.523-4.477-10-10-10H10C4.477 0 0 4.477 0 10v166.5c0 5.523 4.477 10 10 10h156.5c5.523 0 10-4.477 10-10V139c0-5.523-4.477-10-10-10h-24.25a8.75 8.75 0 0 0-8.75 8.75 8.75 8.75 0 0 1-8.75 8.75H47c-5.523 0-10-4.477-10-10V50c0-5.523 4.477-10 10-10h1c5.523 0 10-4.477 10-10"/>
</svg>
